<?xml version="1.0" encoding="UTF-8" standalone="no"?>
<!DOCTYPE svg PUBLIC "-//W3C//DTD SVG 1.1//EN" "http://www.w3.org/Graphics/SVG/1.1/DTD/svg11.dtd">
<svg width="100%" height="100%" id="main" viewBox="0 0 329 337" version="1.1" xmlns="http://www.w3.org/2000/svg" xmlns:xlink="http://www.w3.org/1999/xlink" xml:space="preserve" xmlns:serif="http://www.serif.com/" style="fill:currentColor;fill-rule:nonzero;fill-rule:evenodd;clip-rule:evenodd;stroke-linejoin:round;stroke-miterlimit:2;">
    <g transform="matrix(328.22,0,0,-328.22,-0.0002104,168.077)">
        <path d="M0.001,0.295C0,0.279 0,0.263 0,0.247C0,0.097 0.04,-0.043 0.11,-0.164C0.141,-0.036 0.2,0.045 0.252,0.094C0.257,0.099 0.266,0.099 0.271,0.093C0.276,0.088 0.276,0.079 0.271,0.074C0.218,0.024 0.158,-0.06 0.13,-0.198C0.139,-0.212 0.149,-0.226 0.158,-0.239C0.2,0.026 0.373,0.128 0.487,0.128C0.557,0.128 0.616,0.111 0.666,0.077C0.672,0.072 0.674,0.064 0.669,0.058C0.665,0.052 0.657,0.05 0.65,0.054C0.605,0.086 0.552,0.101 0.487,0.101C0.379,0.101 0.213,-0.002 0.182,-0.27C0.192,-0.283 0.203,-0.295 0.214,-0.307C0.221,-0.203 0.249,-0.116 0.297,-0.05C0.352,0.025 0.415,0.05 0.448,0.058C0.456,0.06 0.463,0.055 0.465,0.048C0.466,0.041 0.462,0.033 0.455,0.032C0.362,0.009 0.25,-0.098 0.24,-0.327C0.24,-0.329 0.239,-0.331 0.238,-0.333C0.25,-0.345 0.262,-0.356 0.274,-0.367C0.274,-0.365 0.274,-0.362 0.274,-0.36C0.274,-0.216 0.316,-0.132 0.351,-0.087C0.39,-0.036 0.443,-0.006 0.492,-0.006C0.549,-0.006 0.597,-0.027 0.633,-0.068C0.638,-0.073 0.638,-0.082 0.632,-0.087C0.627,-0.092 0.618,-0.092 0.613,-0.086C0.581,-0.05 0.542,-0.033 0.492,-0.033C0.419,-0.033 0.302,-0.122 0.301,-0.36C0.301,-0.371 0.301,-0.381 0.302,-0.391C0.312,-0.399 0.322,-0.407 0.332,-0.415C0.331,-0.406 0.331,-0.398 0.331,-0.389C0.33,-0.381 0.336,-0.375 0.344,-0.375C0.351,-0.374 0.358,-0.38 0.358,-0.388C0.358,-0.405 0.36,-0.421 0.362,-0.436C0.373,-0.444 0.384,-0.451 0.395,-0.458C0.39,-0.432 0.386,-0.4 0.386,-0.362C0.387,-0.306 0.394,-0.259 0.41,-0.221C0.413,-0.214 0.421,-0.211 0.428,-0.213C0.435,-0.216 0.438,-0.224 0.435,-0.231C0.421,-0.266 0.414,-0.31 0.414,-0.362C0.414,-0.407 0.419,-0.445 0.428,-0.477C0.451,-0.49 0.475,-0.501 0.5,-0.512C0.526,-0.501 0.551,-0.489 0.575,-0.475C0.584,-0.443 0.589,-0.402 0.585,-0.352C0.584,-0.344 0.59,-0.338 0.598,-0.337C0.605,-0.336 0.612,-0.342 0.612,-0.35C0.615,-0.39 0.613,-0.426 0.607,-0.456C0.618,-0.449 0.63,-0.442 0.641,-0.435C0.643,-0.409 0.643,-0.381 0.641,-0.348C0.628,-0.199 0.587,-0.116 0.518,-0.103C0.51,-0.101 0.505,-0.094 0.507,-0.087C0.508,-0.079 0.516,-0.075 0.523,-0.076C0.606,-0.093 0.654,-0.181 0.668,-0.346C0.67,-0.371 0.67,-0.393 0.669,-0.414C0.679,-0.406 0.689,-0.399 0.699,-0.391C0.699,-0.375 0.698,-0.359 0.696,-0.342C0.688,-0.253 0.67,-0.183 0.644,-0.132C0.641,-0.126 0.643,-0.118 0.65,-0.114C0.657,-0.111 0.665,-0.113 0.668,-0.12C0.696,-0.173 0.715,-0.247 0.723,-0.34C0.724,-0.349 0.725,-0.359 0.725,-0.368C0.757,-0.34 0.785,-0.31 0.812,-0.278C0.791,-0.143 0.751,-0.044 0.692,0.019C0.687,0.024 0.687,0.033 0.692,0.038C0.698,0.043 0.707,0.043 0.712,0.037C0.771,-0.025 0.812,-0.121 0.835,-0.249C0.844,-0.236 0.853,-0.224 0.862,-0.211C0.809,0.044 0.685,0.168 0.485,0.168C0.431,0.168 0.369,0.147 0.315,0.11C0.309,0.106 0.301,0.107 0.296,0.114C0.292,0.12 0.294,0.128 0.3,0.133C0.358,0.173 0.425,0.196 0.485,0.196C0.593,0.196 0.679,0.163 0.747,0.095C0.809,0.033 0.854,-0.058 0.882,-0.178C0.957,-0.054 1,0.091 1,0.247C1,0.263 1,0.279 0.999,0.295C0.874,0.429 0.697,0.512 0.5,0.512C0.303,0.512 0.126,0.429 0.001,0.295ZM0.753,-0.299C0.725,-0.089 0.648,0.02 0.52,0.034C0.512,0.035 0.507,0.042 0.508,0.049C0.508,0.057 0.515,0.062 0.523,0.062C0.587,0.055 0.64,0.026 0.681,-0.023C0.73,-0.083 0.764,-0.174 0.78,-0.296C0.781,-0.303 0.776,-0.31 0.768,-0.311C0.768,-0.311 0.767,-0.311 0.767,-0.311C0.76,-0.311 0.754,-0.306 0.753,-0.299ZM0.344,-0.343C0.337,-0.342 0.331,-0.336 0.331,-0.328C0.34,-0.176 0.405,-0.1 0.462,-0.079C0.469,-0.077 0.477,-0.08 0.48,-0.087C0.482,-0.095 0.478,-0.102 0.471,-0.105C0.422,-0.122 0.366,-0.191 0.358,-0.33C0.358,-0.337 0.352,-0.343 0.345,-0.343C0.345,-0.343 0.344,-0.343 0.344,-0.343ZM0.442,-0.188C0.437,-0.183 0.436,-0.175 0.441,-0.169C0.458,-0.151 0.478,-0.141 0.496,-0.141C0.555,-0.141 0.591,-0.192 0.607,-0.296C0.608,-0.304 0.602,-0.311 0.595,-0.312C0.594,-0.312 0.594,-0.312 0.593,-0.312C0.586,-0.312 0.581,-0.307 0.58,-0.3C0.56,-0.168 0.512,-0.168 0.496,-0.168C0.486,-0.168 0.473,-0.175 0.461,-0.188C0.459,-0.191 0.455,-0.192 0.451,-0.192C0.448,-0.192 0.445,-0.191 0.442,-0.188ZM0.474,-0.487C0.455,-0.466 0.445,-0.422 0.446,-0.362C0.446,-0.262 0.473,-0.227 0.497,-0.227C0.507,-0.227 0.522,-0.231 0.533,-0.254C0.536,-0.261 0.533,-0.269 0.526,-0.272C0.519,-0.275 0.511,-0.272 0.508,-0.266C0.504,-0.258 0.501,-0.254 0.497,-0.254C0.492,-0.257 0.473,-0.282 0.473,-0.362C0.473,-0.436 0.488,-0.461 0.495,-0.469C0.5,-0.475 0.499,-0.483 0.493,-0.488C0.491,-0.49 0.488,-0.492 0.484,-0.492C0.481,-0.492 0.477,-0.49 0.474,-0.487ZM0.514,-0.481C0.507,-0.478 0.505,-0.469 0.508,-0.463C0.52,-0.44 0.525,-0.4 0.523,-0.355C0.522,-0.333 0.52,-0.313 0.517,-0.298C0.516,-0.29 0.521,-0.283 0.528,-0.282C0.536,-0.281 0.543,-0.285 0.544,-0.293C0.547,-0.31 0.549,-0.33 0.55,-0.354C0.553,-0.404 0.546,-0.448 0.532,-0.475C0.53,-0.48 0.525,-0.483 0.52,-0.483C0.518,-0.483 0.516,-0.482 0.514,-0.481Z" style="fill:currentColor;fill-rule:nonzero;fill-rule:nonzero;"/>
    </g>
</svg>
