<?xml version="1.0" encoding="UTF-8"?>
<!DOCTYPE svg PUBLIC "-//W3C//DTD SVG 1.1//EN" "http://www.w3.org/Graphics/SVG/1.1/DTD/svg11.dtd">
<svg version="1.1" xmlns="http://www.w3.org/2000/svg" xmlns:xlink="http://www.w3.org/1999/xlink" x="0" y="0" width="256" height="128" viewBox="0, 0, 256, 128">
  <defs>
    <linearGradient id="Gradient_1" gradientUnits="userSpaceOnUse" x1="12.988" y1="20.915" x2="69.661" y2="20.915">
      <stop offset="0" stop-color="#FEE958"/>
      <stop offset="1" stop-color="#FC8B42"/>
    </linearGradient>
    <linearGradient id="Gradient_2" gradientUnits="userSpaceOnUse" x1="-3830.563" y1="6965.329" x2="-3773.891" y2="6965.329" gradientTransform="matrix(-1, 0, -0, -1, -3715.79, 7072.19)">
      <stop offset="0" stop-color="#F5BA67"/>
      <stop offset="1" stop-color="#E0468C"/>
    </linearGradient>
    <linearGradient id="Gradient_3" gradientUnits="userSpaceOnUse" x1="1905.28" y1="2397.215" x2="1961.952" y2="2397.215" gradientTransform="matrix(0.707, -0.707, 0.707, 0.707, -3044.8, -278.36)">
      <stop offset="0" stop-color="#FEE958"/>
      <stop offset="1" stop-color="#FC8B42"/>
    </linearGradient>
    <linearGradient id="Gradient_4" gradientUnits="userSpaceOnUse" x1="-5722.854" y1="4589.031" x2="-5666.182" y2="4589.031" gradientTransform="matrix(-0.707, 0.707, -0.707, -0.707, -671.47, 7349.89)">
      <stop offset="0" stop-color="#FAD25F"/>
      <stop offset="1" stop-color="#E0468C"/>
    </linearGradient>
    <linearGradient id="Gradient_5" gradientUnits="userSpaceOnUse" x1="1563.037" y1="5415.555" x2="1619.709" y2="5415.555" gradientTransform="matrix(0, -1, 1, 0, -5394.64, 1677.81)">
      <stop offset="0" stop-color="#FAD25F"/>
      <stop offset="0.18" stop-color="#F9CA62"/>
      <stop offset="0.45" stop-color="#F5B469"/>
      <stop offset="0.78" stop-color="#EE9074"/>
      <stop offset="1" stop-color="#E9757D"/>
    </linearGradient>
    <linearGradient id="Gradient_6" gradientUnits="userSpaceOnUse" x1="-5380.612" y1="1570.703" x2="-5323.924" y2="1570.703" gradientTransform="matrix(0, 1, -1, 0, 1677.55, 5393.6)">
      <stop offset="0" stop-color="#FAD25F"/>
      <stop offset="0.15" stop-color="#F8CA62"/>
      <stop offset="0.38" stop-color="#F4B469"/>
      <stop offset="0.67" stop-color="#EE9074"/>
      <stop offset="0.99" stop-color="#E45F85"/>
      <stop offset="1" stop-color="#E45D85"/>
    </linearGradient>
    <linearGradient id="Gradient_7" gradientUnits="userSpaceOnUse" x1="-813.263" y1="7307.844" x2="-756.591" y2="7307.844" gradientTransform="matrix(-0.707, -0.707, 0.707, -0.707, -5673, 4722.62)">
      <stop offset="0" stop-color="#F1A36E"/>
      <stop offset="1" stop-color="#E0468C"/>
    </linearGradient>
    <linearGradient id="Gradient_8" gradientUnits="userSpaceOnUse" x1="-3004.315" y1="-321.587" x2="-2947.643" y2="-321.587" gradientTransform="matrix(0.707, 0.707, -0.707, 0.707, 1955.25, 2349.28)">
      <stop offset="0" stop-color="#FEE958"/>
      <stop offset="0.16" stop-color="#FCDD5C"/>
      <stop offset="0.45" stop-color="#F6BF65"/>
      <stop offset="0.83" stop-color="#ED8D75"/>
      <stop offset="1" stop-color="#E9757D"/>
    </linearGradient>
  </defs>
  <g id="Layer_1">
    <path d="M66.525,17.56 C64.151,13.899 60.968,10.831 57.222,8.593 C54.986,7.274 52.544,6.343 49.998,5.838 C47.437,5.33 44.81,5.236 42.218,5.56 C21.618,8.578 15.084,23.757 12.988,32.68 C15.146,31.232 17.534,30.162 20.05,29.515 C24.278,28.446 28.695,28.365 32.959,29.281 C35.334,29.755 37.653,30.482 39.874,31.449 C42.911,32.759 45.767,34.453 48.372,36.49 C50.727,35.153 53.243,34.124 55.859,33.427 C56.334,30.123 57.118,26.871 58.203,23.713 L58.291,23.479 C60.151,23.226 62.026,23.098 63.903,23.098 C65.828,23.101 67.751,23.224 69.661,23.464 C68.816,21.396 67.766,19.418 66.525,17.56 z" fill="url(#Gradient_1)"/>
    <path d="M61.251,110.216 C63.624,113.874 66.801,116.941 70.54,119.183 C72.781,120.502 75.228,121.433 77.778,121.938 C80.34,122.446 82.966,122.54 85.558,122.216 C106.158,119.198 112.693,104.019 114.802,95.096 C112.645,96.544 110.257,97.614 107.74,98.261 C103.508,99.331 99.086,99.411 94.818,98.495 C92.443,98.017 90.125,97.29 87.902,96.327 C84.872,95.014 82.021,93.32 79.419,91.287 C77.064,92.623 74.548,93.652 71.932,94.349 C71.457,97.653 70.672,100.906 69.588,104.063 L69.5,104.297 C67.64,104.551 65.765,104.678 63.888,104.678 C61.958,104.675 60.03,104.552 58.115,104.312 C58.966,106.377 60.016,108.355 61.251,110.216 z" fill="url(#Gradient_2)"/>
    <path d="M33.003,29.266 C28.734,28.351 24.312,28.431 20.08,29.501 C17.564,30.15 15.177,31.22 13.018,32.666 C10.844,34.109 8.923,35.901 7.333,37.969 C-5.106,54.672 1.003,70.027 5.868,77.807 C6.361,75.26 7.287,72.817 8.608,70.584 C10.846,66.838 13.913,63.655 17.574,61.28 C19.583,59.946 21.724,58.821 23.962,57.925 C27.03,56.706 30.24,55.883 33.515,55.478 C34.237,52.873 35.291,50.371 36.651,48.035 C34.663,45.356 32.922,42.502 31.449,39.508 C31.409,39.433 31.375,39.354 31.347,39.273 C32.477,37.777 33.711,36.362 35.039,35.039 C36.419,33.669 37.887,32.392 39.435,31.215 C37.359,30.359 35.204,29.707 33.003,29.266 z" fill="url(#Gradient_3)"/>
    <path d="M94.774,98.51 C99.042,99.426 103.464,99.345 107.696,98.275 C110.227,97.631 112.63,96.56 114.802,95.111 C116.976,93.668 118.897,91.876 120.487,89.807 C132.926,73.104 126.817,57.749 121.952,49.969 C121.455,52.517 120.523,54.96 119.198,57.192 C116.96,60.939 113.892,64.122 110.231,66.496 C108.209,67.833 106.053,68.958 103.799,69.851 C100.746,71.067 97.551,71.89 94.29,72.298 C93.58,74.905 92.531,77.407 91.169,79.741 C93.158,82.42 94.898,85.274 96.371,88.268 L96.473,88.503 C95.343,89.999 94.11,91.414 92.781,92.737 C91.401,94.107 89.933,95.384 88.386,96.561 C90.447,97.414 92.587,98.067 94.774,98.51 z" fill="url(#Gradient_4)"/>
    <path d="M17.56,61.251 C13.899,63.625 10.831,66.808 8.593,70.555 C7.274,72.79 6.343,75.232 5.838,77.778 C5.315,80.338 5.221,82.967 5.56,85.558 C8.578,106.158 23.757,112.693 32.68,114.861 C31.232,112.704 30.162,110.315 29.515,107.799 C28.448,103.572 28.363,99.156 29.266,94.891 C29.755,92.512 30.486,90.19 31.449,87.961 C32.762,84.93 34.456,82.08 36.49,79.477 C35.147,77.126 34.117,74.609 33.427,71.99 C30.123,71.516 26.871,70.731 23.713,69.646 L23.479,69.558 C23.226,67.698 23.098,65.824 23.098,63.947 C23.102,62.017 23.224,60.089 23.464,58.174 C21.401,59.006 19.424,60.037 17.56,61.251 z" fill="url(#Gradient_5)"/>
    <path d="M110.216,66.525 C113.883,64.153 116.956,60.97 119.198,57.222 C120.518,54.989 121.445,52.545 121.938,49.998 C122.46,47.439 122.559,44.81 122.231,42.218 C119.198,21.618 104.019,15.084 95.096,12.988 C96.544,15.146 97.614,17.534 98.261,20.05 C99.331,24.278 99.411,28.695 98.495,32.959 C98.019,35.339 97.292,37.662 96.327,39.889 C95.037,42.915 93.368,45.766 91.36,48.372 C92.651,50.733 93.636,53.249 94.29,55.859 C97.595,56.334 100.847,57.118 104.004,58.203 L104.239,58.291 C104.492,60.151 104.619,62.026 104.62,63.903 C104.616,65.833 104.493,67.761 104.253,69.675 C106.339,68.823 108.337,67.768 110.216,66.525 z" fill="url(#Gradient_6)"/>
    <path d="M29.266,94.774 C28.351,99.042 28.431,103.464 29.501,107.696 C30.15,110.212 31.22,112.6 32.666,114.758 C34.109,116.932 35.901,118.853 37.969,120.443 C54.672,132.883 70.027,126.773 77.807,121.908 C75.26,121.416 72.817,120.489 70.584,119.169 C66.838,116.931 63.655,113.863 61.28,110.202 C59.943,108.179 58.819,106.024 57.925,103.77 C56.704,100.698 55.882,97.483 55.478,94.202 C52.871,93.492 50.369,92.443 48.035,91.081 C45.356,93.07 42.502,94.811 39.508,96.283 L39.273,96.385 C37.777,95.255 36.362,94.022 35.039,92.693 C33.669,91.314 32.392,89.845 31.215,88.298 C30.356,90.388 29.704,92.557 29.266,94.774 z" fill="url(#Gradient_7)"/>
    <path d="M98.51,33.003 C99.418,28.733 99.338,24.313 98.275,20.08 C97.626,17.564 96.556,15.177 95.111,13.018 C93.668,10.844 91.876,8.923 89.807,7.333 C73.104,-5.106 57.749,1.003 49.969,5.868 C52.516,6.361 54.959,7.287 57.192,8.608 C60.919,10.843 64.087,13.899 66.452,17.545 C67.789,19.568 68.914,21.723 69.807,23.977 C71.048,27.046 71.89,30.261 72.313,33.545 C74.92,34.255 77.422,35.304 79.756,36.665 C82.435,34.677 85.289,32.936 88.283,31.464 L88.517,31.362 C90.014,32.492 91.429,33.725 92.752,35.054 C94.118,36.437 95.395,37.905 96.576,39.449 C97.428,37.368 98.075,35.209 98.51,33.003 z" fill="url(#Gradient_8)"/>
    <path d="M168.794,38.365 L168.794,40.753 C168.794,43.215 167.9,44.768 166.098,45.442 C168.046,46.028 169.028,47.625 169.028,50.204 L169.028,52.782 Q169.028,58.833 162.611,58.819 L154.142,58.819 L154.142,32.329 L162.376,32.329 Q168.794,32.329 168.794,38.365 z M161.688,36.27 L158.757,36.27 L158.757,43.376 L161.688,43.376 C163.387,43.376 164.237,42.57 164.237,40.973 L164.237,38.629 C164.237,37.061 163.387,36.27 161.688,36.27 z M164.471,52.518 L164.471,49.925 C164.471,48.328 163.622,47.522 161.922,47.522 L158.757,47.522 L158.757,54.848 L161.893,54.848 C163.622,54.877 164.471,54.086 164.471,52.518 z" fill="#FFFFFF"/>
    <path d="M171.827,42.072 C171.72,40.378 172.344,38.719 173.541,37.515 C176.679,35.326 180.849,35.326 183.987,37.515 C185.169,38.705 185.791,40.339 185.702,42.013 L185.702,53.002 C185.801,54.678 185.177,56.315 183.987,57.5 C180.849,59.69 176.679,59.69 173.541,57.5 C172.352,56.315 171.727,54.678 171.827,53.002 z M181.101,42.189 C181.004,40.97 179.987,40.03 178.764,40.03 C177.541,40.03 176.524,40.97 176.427,42.189 L176.427,52.943 C176.524,54.162 177.541,55.102 178.764,55.102 C179.987,55.102 181.004,54.162 181.101,52.943 z" fill="#FFFFFF"/>
    <path d="M197.804,36.197 L198.58,36.197 L198.58,40.592 L197.54,40.592 C196.166,40.597 194.823,40.999 193.672,41.75 L193.672,58.819 L188.984,58.819 L188.984,36.314 L193.379,36.314 L193.379,37.896 C194.126,37.413 194.654,37.09 194.932,36.929 C195.808,36.435 196.799,36.183 197.804,36.197 z" fill="#FFFFFF"/>
    <path d="M201.247,30.321 L205.935,30.321 L205.935,58.819 L201.247,58.819 z" fill="#FFFFFF"/>
    <path d="M210.038,36.856 C211.941,36.308 213.919,36.061 215.899,36.123 C217.806,35.952 219.707,36.524 221.202,37.72 C222.399,39.028 222.999,40.774 222.858,42.541 L222.858,58.819 L218.463,58.819 L218.463,57.192 C216.195,59.359 212.678,59.528 210.214,57.588 C209.274,56.42 208.818,54.936 208.939,53.442 L208.939,52.167 C208.865,50.832 209.264,49.514 210.067,48.445 C211.031,47.377 212.299,46.63 213.701,46.306 L218.375,45.031 L218.375,42.497 C218.415,41.842 218.163,41.204 217.686,40.753 C216.75,40.296 215.704,40.113 214.668,40.226 C213.099,40.223 211.542,40.496 210.067,41.032 z M213.481,52.328 L213.481,53.442 C213.481,54.76 214.155,55.419 215.532,55.419 C216.527,55.44 217.502,55.142 218.316,54.57 L218.316,48.914 L215.562,49.691 C214.921,49.806 214.332,50.119 213.877,50.584 C213.577,51.114 213.449,51.723 213.51,52.328 z" fill="#FFFFFF"/>
    <path d="M226.653,30.321 L231.297,30.321 L231.297,36.929 C232.67,36.438 234.118,36.191 235.576,36.197 C236.899,36.133 238.196,36.585 239.195,37.457 C240.148,38.44 240.638,39.782 240.543,41.149 L240.543,53.134 C240.661,54.713 240.083,56.266 238.96,57.383 C237.78,58.401 236.253,58.925 234.697,58.848 L226.653,58.848 z M235.825,42.145 C235.825,41.046 235.224,40.489 234.052,40.489 C233.109,40.492 232.18,40.718 231.341,41.149 L231.341,54.526 L233.48,54.526 C234.946,54.526 235.795,53.837 235.795,52.475 z" fill="#FFFFFF"/>
    <path d="M243.18,42.043 C243.071,40.39 243.711,38.776 244.923,37.647 C246.594,36.522 248.601,36.004 250.608,36.182 C252.149,36.16 253.685,36.367 255.165,36.797 L255.165,40.929 C253.89,40.505 252.553,40.297 251.209,40.314 C250.24,40.212 249.261,40.379 248.381,40.797 C247.93,41.187 247.696,41.771 247.751,42.365 L247.751,42.907 C247.724,43.343 247.854,43.774 248.117,44.123 C248.545,44.564 249.04,44.935 249.583,45.222 L252.791,47.127 C254.701,48.027 255.942,49.925 256,52.035 L256,53.046 Q256,59.068 248.103,59.068 C246.465,59.095 244.83,58.912 243.238,58.526 L243.238,54.262 C244.595,54.656 246.002,54.849 247.414,54.833 C248.475,54.921 249.54,54.75 250.52,54.335 C251.048,54.038 251.368,53.475 251.355,52.87 L251.355,52.328 C251.377,51.876 251.219,51.433 250.916,51.097 C250.35,50.591 249.72,50.162 249.04,49.823 L246.11,48.108 C244.27,47.173 243.13,45.264 243.18,43.2 z" fill="#FFFFFF"/>
    <path d="M153.761,79.39 C153.672,77.65 154.411,75.972 155.754,74.862 C157.511,73.649 159.631,73.075 161.761,73.236 C163.353,73.22 164.939,73.417 166.479,73.822 L166.479,78.071 C165.051,77.649 163.572,77.427 162.083,77.412 C161.068,77.298 160.042,77.508 159.153,78.012 C158.632,78.443 158.349,79.096 158.391,79.77 L158.391,93.587 C158.391,95.155 159.519,95.946 161.761,95.946 C163.381,95.983 164.997,95.771 166.552,95.316 L166.552,99.535 C164.949,99.947 163.298,100.144 161.644,100.122 Q153.717,100.122 153.717,94.012 z" fill="#FFFFFF"/>
    <path d="M169.131,83.184 C169.031,81.501 169.661,79.857 170.859,78.672 C173.993,76.485 178.158,76.485 181.291,78.672 C182.49,79.857 183.12,81.501 183.02,83.184 L183.02,94.158 C183.12,95.841 182.49,97.485 181.291,98.671 C178.158,100.858 173.993,100.858 170.859,98.671 C169.661,97.485 169.031,95.841 169.131,94.158 z M178.42,83.301 C178.42,82.007 177.37,80.957 176.075,80.957 C174.781,80.957 173.731,82.007 173.731,83.301 L173.731,94.041 C173.731,95.336 174.781,96.385 176.075,96.385 C177.37,96.385 178.42,95.336 178.42,94.041 z" fill="#FFFFFF"/>
    <path d="M186.024,83.184 C185.932,81.505 186.555,79.866 187.738,78.672 C190.876,76.482 195.047,76.482 198.185,78.672 C199.368,79.866 199.991,81.505 199.899,83.184 L199.899,94.158 C199.987,95.837 199.365,97.475 198.185,98.671 C195.047,100.861 190.876,100.861 187.738,98.671 C186.558,97.475 185.936,95.837 186.024,94.158 z M195.298,83.301 C195.202,82.082 194.184,81.142 192.961,81.142 C191.739,81.142 190.721,82.082 190.625,83.301 L190.625,94.041 C190.721,95.26 191.739,96.2 192.961,96.2 C194.184,96.2 195.202,95.26 195.298,94.041 z" fill="#FFFFFF"/>
    <path d="M203.181,71.419 L207.708,71.419 L207.708,99.916 L203.181,99.916 z M211.884,77.412 L216.573,77.412 L212.661,88.137 L217.056,99.858 L212.104,99.858 L208.045,87.873 z" fill="#FFFFFF"/>
    <path d="M222.155,76.064 C220.382,76.064 219.503,75.214 219.503,73.514 C219.503,71.815 220.382,70.965 222.155,70.965 C223.563,70.965 224.704,72.106 224.704,73.514 C224.704,74.922 223.563,76.064 222.155,76.064 z M219.811,77.836 L224.484,77.836 L224.484,99.916 L219.811,99.916 z" fill="#FFFFFF"/>
    <path d="M227.62,93.777 L227.62,83.184 C227.52,81.501 228.15,79.857 229.349,78.672 C230.802,77.467 232.669,76.878 234.55,77.031 C236.405,76.871 238.247,77.463 239.663,78.672 C240.806,79.887 241.4,81.519 241.304,83.184 L241.304,90.598 L232.147,90.598 L232.147,93.426 C232.075,94.186 232.375,94.934 232.953,95.433 C233.896,95.95 234.974,96.17 236.044,96.063 C237.636,96.053 239.217,95.801 240.733,95.316 L240.733,99.462 C238.996,99.937 237.201,100.168 235.4,100.151 Q227.62,100.151 227.62,93.777 z M232.147,86.964 L236.982,86.964 L236.982,83.214 C236.982,81.748 236.176,80.943 234.565,80.943 C232.953,80.943 232.147,81.69 232.147,83.214 z" fill="#FFFFFF"/>
  </g>
</svg>
