<?xml version="1.0" encoding="UTF-8" standalone="no"?>
<!DOCTYPE svg PUBLIC "-//W3C//DTD SVG 1.1//EN" "http://www.w3.org/Graphics/SVG/1.1/DTD/svg11.dtd">
<svg width="100%" height="100%" id="main" viewBox="0 0 128 136" version="1.1" xmlns="http://www.w3.org/2000/svg" xmlns:xlink="http://www.w3.org/1999/xlink" xml:space="preserve" xmlns:serif="http://www.serif.com/" style="fill:currentColor;fill-rule:nonzero;fill-rule:evenodd;clip-rule:evenodd;stroke-linejoin:round;stroke-miterlimit:2;">
    <g transform="matrix(1,0,0,1,104.949,33.031)">
        <path d="M0,69.61C0.147,70.705 -0.62,71.712 -1.715,71.859C-1.806,71.871 -1.895,71.877 -1.985,71.877C-2.971,71.877 -3.829,71.148 -3.964,70.143C-8.112,39.323 -19.286,23.343 -38.127,21.29C-39.225,21.17 -40.018,20.183 -39.899,19.085C-39.779,17.987 -38.801,17.191 -37.694,17.313C-28.339,18.333 -20.548,22.505 -14.536,29.716C-7.282,38.414 -2.392,51.837 0,69.61M-25.416,69.742C-25.256,70.835 -26.012,71.85 -27.105,72.011C-27.204,72.025 -27.301,72.032 -27.398,72.032C-28.374,72.032 -29.229,71.317 -29.374,70.322C-32.213,50.948 -39.259,50.948 -41.574,50.948C-43.11,50.948 -45.016,52.017 -46.674,53.806C-47.424,54.617 -48.689,54.666 -49.5,53.914C-50.311,53.164 -50.359,51.898 -49.609,51.088C-47.136,48.418 -44.283,46.948 -41.574,46.948C-32.949,46.948 -27.663,54.404 -25.416,69.742M-36.272,95.9C-36.626,96.591 -37.327,96.989 -38.054,96.989C-38.361,96.989 -38.672,96.918 -38.964,96.769C-39.946,96.265 -40.336,95.06 -39.832,94.077C-38.146,90.785 -37.328,84.916 -37.644,78.38C-37.805,75.051 -38.094,72.207 -38.505,69.926C-38.701,68.839 -37.978,67.8 -36.891,67.604C-35.808,67.406 -34.764,68.13 -34.568,69.218C-34.127,71.667 -33.817,74.686 -33.648,78.187C-33.295,85.499 -34.252,91.955 -36.272,95.9M-41.415,63.524C-42.203,63.924 -44.974,67.656 -44.992,79.285C-45.01,90.208 -42.777,93.905 -41.816,94.988C-41.083,95.813 -41.158,97.077 -41.984,97.811C-42.365,98.149 -42.839,98.315 -43.311,98.315C-43.863,98.315 -44.412,98.088 -44.808,97.643C-47.56,94.543 -49.007,88.192 -48.993,79.278C-48.969,64.695 -44.942,59.52 -41.499,59.52C-39.967,59.52 -37.811,60.208 -36.248,63.489C-35.772,64.486 -36.195,65.68 -37.193,66.154C-38.19,66.631 -39.383,66.207 -39.858,65.21C-40.366,64.145 -40.889,63.578 -41.415,63.524M-61.749,74.641C-61.809,75.706 -62.691,76.528 -63.744,76.528C-63.782,76.528 -63.82,76.527 -63.859,76.525C-64.962,76.462 -65.805,75.518 -65.742,74.415C-64.475,52.087 -55,40.923 -46.555,37.919C-45.515,37.549 -44.371,38.092 -44.001,39.133C-43.63,40.174 -44.174,41.317 -45.215,41.688C-52.45,44.261 -60.593,54.27 -61.749,74.641M-70.322,6.91C-61.838,1.041 -51.961,-2.326 -43.223,-2.326C-27.342,-2.326 -14.799,2.5 -4.877,12.426C3.875,21.181 10.367,34.028 14.546,50.728C31.366,12.428 17.608,-27.168 17.608,-27.168C17.608,-27.168 13.966,-24.611 4.645,-23.402C1.078,-22.939 -3.319,-22.673 -8.667,-22.825C-10.398,-22.874 -12.043,-22.978 -13.621,-23.12C-21.529,-23.831 -27.541,-25.604 -31.887,-27.462C-38.209,-30.162 -41.021,-33.031 -41.021,-33.031C-41.021,-33.031 -43.833,-30.162 -50.154,-27.462C-54.501,-25.604 -60.513,-23.831 -68.421,-23.12C-69.999,-22.978 -71.644,-22.874 -73.375,-22.825C-78.723,-22.673 -83.12,-22.939 -86.687,-23.402C-96.008,-24.611 -99.65,-27.168 -99.65,-27.168C-99.65,-27.168 -112.82,10.737 -97.636,48.246C-92.964,30.73 -84.676,19.51 -77.343,12.602C-76.539,11.845 -75.274,11.883 -74.516,12.686C-73.758,13.49 -73.796,14.756 -74.6,15.514C-82.183,22.658 -90.845,34.718 -94.953,54.248C-93.778,56.641 -92.483,59.024 -91.046,61.387C-84.998,22.525 -59.61,7.571 -42.884,7.571C-32.608,7.571 -24.051,10.03 -16.724,15.09C-15.815,15.718 -15.587,16.964 -16.215,17.873C-16.842,18.781 -18.087,19.009 -18.997,18.382C-25.633,13.798 -33.447,11.571 -42.884,11.571C-58.816,11.571 -83.301,26.738 -87.687,66.486C-87.355,66.95 -87.029,67.419 -86.687,67.877C-85.526,69.432 -84.29,70.938 -83.014,72.408C-82.092,56.635 -77.989,43.609 -70.791,33.69C-62.76,22.622 -53.447,18.997 -48.61,17.82C-47.537,17.561 -46.455,18.217 -46.194,19.291C-45.933,20.364 -46.592,21.447 -47.665,21.708C-61.245,25.01 -77.63,40.735 -79.11,74.185C-79.139,74.835 -79.477,75.395 -79.974,75.738C-78.083,77.706 -76.118,79.579 -74.117,81.361C-74.13,80.589 -74.144,79.818 -74.141,79.032C-74.077,57.915 -67.988,45.632 -62.893,39.047C-57.141,31.614 -49.404,27.177 -42.196,27.177C-33.796,27.177 -26.83,30.231 -21.491,36.257C-20.759,37.084 -20.835,38.348 -21.662,39.081C-22.488,39.812 -23.752,39.736 -24.486,38.91C-29.096,33.706 -34.889,31.177 -42.196,31.177C-52.944,31.177 -70.034,44.172 -70.141,79.044C-70.148,81.031 -70.099,82.971 -69.999,84.865C-69.473,85.293 -68.947,85.725 -68.421,86.139C-67.443,86.908 -66.468,87.646 -65.497,88.368C-65.652,86.711 -65.766,85.007 -65.828,83.247C-65.866,82.143 -65.003,81.216 -63.899,81.177C-62.811,81.144 -61.869,82.001 -61.83,83.105C-61.726,86.052 -61.478,88.861 -61.091,91.517C-59.367,92.698 -57.691,93.787 -56.082,94.793C-57.048,90.69 -57.66,85.63 -57.645,79.373C-57.625,71.161 -56.478,64.196 -54.234,58.671C-53.818,57.648 -52.651,57.156 -51.628,57.57C-50.604,57.986 -50.112,59.153 -50.527,60.177C-52.577,65.224 -53.626,71.686 -53.644,79.382C-53.662,86.67 -52.75,92.926 -51.024,97.808C-50.735,97.972 -50.434,98.146 -50.154,98.302C-45.407,100.944 -41.966,102.451 -41.021,102.641C-40.076,102.451 -36.635,100.944 -31.887,98.302C-31.46,98.064 -31.007,97.804 -30.559,97.547C-28.921,92.572 -27.986,85.985 -28.577,77.81C-28.656,76.708 -27.829,75.751 -26.726,75.671C-25.629,75.593 -24.667,76.42 -24.587,77.522C-24.109,84.137 -24.6,89.834 -25.657,94.607C-24.025,93.58 -22.318,92.456 -20.572,91.252C-20.103,87.228 -19.979,82.6 -20.427,77.335C-22.289,55.478 -28.345,43.383 -38.429,41.387C-39.513,41.172 -40.217,40.12 -40.003,39.036C-39.788,37.953 -38.734,37.248 -37.652,37.463C-25.439,39.881 -18.501,52.812 -16.442,76.996C-16.094,81.076 -16.082,84.794 -16.294,88.184C-15.406,87.521 -14.514,86.841 -13.621,86.139C-13.055,85.693 -12.489,85.229 -11.923,84.768C-11.907,82.047 -12.014,79.266 -12.28,76.422C-13.499,63.438 -16.062,53.109 -19.897,45.721C-20.406,44.741 -20.024,43.534 -19.043,43.025C-18.065,42.515 -16.856,42.898 -16.347,43.879C-12.273,51.725 -9.565,62.548 -8.298,76.048C-8.128,77.857 -8.034,79.639 -7.974,81.405C-3.431,77.363 0.94,72.838 4.645,67.877C4.686,67.822 4.724,67.766 4.764,67.712C1.768,47.662 -4.163,32.836 -12.92,23.608C-13.68,22.807 -13.647,21.541 -12.846,20.781C-12.044,20.02 -10.778,20.054 -10.018,20.855C-1.326,30.014 4.721,44.15 8.036,62.936C9.403,60.786 10.654,58.618 11.798,56.438C4.008,19.638 -14.092,1.675 -43.223,1.675C-51.167,1.675 -60.215,4.782 -68.046,10.199C-68.954,10.828 -70.2,10.602 -70.828,9.693C-71.457,8.784 -71.23,7.539 -70.322,6.91" style="fill:currentColor;fill-rule:nonzero;fill-rule:nonzero;"/>
    </g>
</svg>
