<?xml version="1.0" encoding="UTF-8" standalone="no"?>
<!DOCTYPE svg PUBLIC "-//W3C//DTD SVG 1.1//EN" "http://www.w3.org/Graphics/SVG/1.1/DTD/svg11.dtd">
<svg width="100%" height="100%" viewBox="0 0 2130 482" version="1.1" xmlns="http://www.w3.org/2000/svg" xmlns:xlink="http://www.w3.org/1999/xlink" xml:space="preserve" xmlns:serif="http://www.serif.com/" style="fill-rule:evenodd;clip-rule:evenodd;stroke-linejoin:round;stroke-miterlimit:1.41421;">
    <g transform="matrix(1,0,0,1,-37,-110.518)">
        <g transform="matrix(16.8559,0,0,16.8559,584.487,280.842)">
            <path d="M0,8.346L3.713,8.346C4.706,8.346 6.122,8.015 6.122,6.802C6.122,5.644 4.706,5.037 3.713,5.037L0,5.037L0,8.346ZM0,2.905L3.713,2.905C5.239,2.905 5.735,2.262 5.735,1.526C5.735,0.938 5.257,-0.055 3.713,-0.055L0,-0.055L0,2.905ZM8.144,1.471C8.144,2.464 7.666,3.42 6.471,3.953C7.978,4.412 8.53,6.012 8.53,6.821C8.53,9.688 6.379,10.607 3.713,10.607L-2.39,10.607L-2.39,-2.261L3.713,-2.261C6.25,-2.261 8.144,-1.121 8.144,1.471" style="fill:rgb(34,34,34);fill-rule:nonzero;"/>
        </g>
        <g transform="matrix(16.8559,0,0,16.8559,807.143,349.327)">
            <path d="M0,0.22C0.055,2.334 1.195,4.595 4.228,4.595C7.261,4.595 8.401,2.316 8.438,0.201C8.475,-1.968 7.261,-4.394 4.228,-4.394C1.195,-4.394 -0.055,-1.949 0,0.22M10.828,0.165C10.791,3.492 8.75,6.82 4.228,6.82C-0.294,6.82 -2.39,3.566 -2.39,0.183C-2.39,-3.199 -0.22,-6.6 4.228,-6.6C8.659,-6.6 10.864,-3.199 10.828,0.165" style="fill:rgb(34,34,34);fill-rule:nonzero;"/>
        </g>
        <g transform="matrix(16.8559,0,0,16.8559,1080.53,421.37)">
            <path d="M0,-8.328L0,-4.21L3.695,-4.21C5.239,-4.21 5.901,-5.24 5.901,-6.269C5.901,-7.299 5.221,-8.328 3.695,-8.328L0,-8.328ZM8.971,2.279L6.085,2.279L2.335,-2.023L0,-2.023L0,2.279L-2.426,2.279L-2.426,-10.607C-0.386,-10.607 1.655,-10.589 3.695,-10.589C6.729,-10.571 8.328,-8.549 8.328,-6.324C8.328,-4.559 7.519,-2.776 5.074,-2.28L8.971,2.113L8.971,2.279Z" style="fill:rgb(34,34,34);fill-rule:nonzero;"/>
        </g>
        <g transform="matrix(16.8559,0,0,16.8559,1319.73,459.632)">
            <path d="M0,-12.868L0,-2.243L6.618,-2.243L6.618,0L-2.427,0L-2.427,-12.868L0,-12.868Z" style="fill:rgb(34,34,34);fill-rule:nonzero;"/>
        </g>
        <g transform="matrix(16.8559,0,0,16.8559,1590.55,414.079)">
            <path d="M0,-7.463L-2.39,-1.985L2.39,-1.985L0,-7.463ZM3.364,0.276L-3.364,0.276L-4.467,2.703L-7.096,2.703L-1.324,-10.166L1.323,-10.166L7.096,2.703L4.448,2.703L3.364,0.276Z" style="fill:rgb(34,34,34);fill-rule:nonzero;"/>
        </g>
        <g transform="matrix(16.8559,0,0,16.8559,1793.62,280.842)">
            <path d="M0,8.346L3.713,8.346C4.706,8.346 6.122,8.015 6.122,6.802C6.122,5.644 4.706,5.037 3.713,5.037L0,5.037L0,8.346ZM0,2.905L3.713,2.905C5.239,2.905 5.736,2.262 5.736,1.526C5.736,0.938 5.258,-0.055 3.713,-0.055L0,-0.055L0,2.905ZM8.144,1.471C8.144,2.464 7.666,3.42 6.471,3.953C7.979,4.412 8.53,6.012 8.53,6.821C8.53,9.688 6.379,10.607 3.713,10.607L-2.39,10.607L-2.39,-2.261L3.713,-2.261C6.25,-2.261 8.144,-1.121 8.144,1.471" style="fill:rgb(34,34,34);fill-rule:nonzero;"/>
        </g>
        <g transform="matrix(16.8559,0,0,16.8559,2127.43,406.334)">
            <path d="M0,-6.544C-0.441,-7.279 -1.654,-7.978 -3.052,-7.978C-4.853,-7.978 -5.717,-7.224 -5.717,-6.268C-5.717,-5.147 -4.394,-4.835 -2.849,-4.65C-0.166,-4.32 2.334,-3.621 2.334,-0.551C2.334,2.316 -0.202,3.548 -3.07,3.548C-5.699,3.548 -7.721,2.739 -8.677,0.386L-6.655,-0.662C-6.084,0.754 -4.596,1.379 -3.033,1.379C-1.507,1.379 -0.074,0.846 -0.074,-0.551C-0.074,-1.764 -1.342,-2.261 -3.052,-2.444C-5.68,-2.757 -8.107,-3.456 -8.107,-6.342C-8.107,-8.989 -5.497,-10.073 -3.125,-10.092C-1.121,-10.092 0.956,-9.522 1.93,-7.537L0,-6.544Z" style="fill:rgb(34,34,34);fill-rule:nonzero;"/>
        </g>
    </g>
    <g transform="matrix(259.076,384.096,384.096,-259.076,48.0268,48.4346)">
        <path d="M0.046,0.164L0.159,-0.203C0.168,-0.233 0.198,-0.253 0.229,-0.25L0.61,-0.215C0.63,-0.214 0.648,-0.203 0.66,-0.186C0.668,-0.173 0.672,-0.158 0.671,-0.142C0.667,-0.106 0.635,-0.078 0.598,-0.082L0.272,-0.112L0.175,0.204C0.169,0.221 0.158,0.235 0.142,0.243C0.126,0.252 0.108,0.254 0.091,0.248C0.076,0.244 0.063,0.234 0.055,0.222C0.043,0.205 0.04,0.184 0.046,0.164Z" style="fill:url(#_Linear1);fill-rule:nonzero;"/>
    </g>
    <g transform="matrix(259.07,384.087,384.087,-259.07,83.691,29.8369)">
        <path d="M0.382,0.148C0.386,0.111 0.419,0.084 0.455,0.087L0.782,0.117L0.878,-0.198C0.889,-0.234 0.927,-0.254 0.962,-0.243C0.977,-0.238 0.99,-0.229 0.998,-0.216C1.01,-0.199 1.013,-0.178 1.007,-0.159L0.894,0.209C0.885,0.239 0.855,0.259 0.824,0.256L0.443,0.221C0.423,0.219 0.405,0.209 0.394,0.192C0.385,0.179 0.381,0.164 0.382,0.148Z" style="fill:url(#_Linear2);fill-rule:nonzero;"/>
    </g>
    <defs>
        <linearGradient id="_Linear1" x1="0" y1="0" x2="1" y2="0" gradientUnits="userSpaceOnUse" gradientTransform="matrix(1,0,0,-1,-8.88178e-16,0.00032355)"><stop offset="0" style="stop-color:rgb(0,219,232);stop-opacity:1"/><stop offset="0" style="stop-color:rgb(0,219,232);stop-opacity:1"/><stop offset="1" style="stop-color:rgb(59,57,185);stop-opacity:1"/></linearGradient>
        <linearGradient id="_Linear2" x1="0" y1="0" x2="1" y2="0" gradientUnits="userSpaceOnUse" gradientTransform="matrix(1,0,0,-1,0,0.00534327)"><stop offset="0" style="stop-color:rgb(0,219,232);stop-opacity:1"/><stop offset="0" style="stop-color:rgb(0,219,232);stop-opacity:1"/><stop offset="1" style="stop-color:rgb(59,57,185);stop-opacity:1"/></linearGradient>
    </defs>
</svg>
