<?xml version="1.0" encoding="UTF-8" standalone="no"?><!DOCTYPE svg PUBLIC "-//W3C//DTD SVG 1.1//EN" "http://www.w3.org/Graphics/SVG/1.1/DTD/svg11.dtd"><svg width="100%" height="100%" viewBox="0 0 65 65" version="1.1" xmlns="http://www.w3.org/2000/svg" xmlns:xlink="http://www.w3.org/1999/xlink" xml:space="preserve" xmlns:serif="http://www.serif.com/" style="fill-rule:evenodd;clip-rule:evenodd;stroke-linejoin:round;stroke-miterlimit:1.41421;"><path d="M24.996,3.546c-7.568,-2.213 -15.87,3.33 -18.495,12.367c0,0.15 -0.075,0.3 -0.12,0.45c1.088,-0.721 2.29,-1.256 3.555,-1.582c2.163,-0.548 4.425,-0.589 6.607,-0.12c1.218,0.243 2.408,0.616 3.548,1.11c1.551,0.672 3.01,1.539 4.342,2.58c1.205,-0.685 2.493,-1.211 3.833,-1.568c0.243,-1.691 0.644,-3.356 1.2,-4.972l0.045,-0.12c0.952,-0.13 1.911,-0.195 2.872,-0.195l1.043,0c-1.441,-3.801 -4.552,-6.735 -8.43,-7.95Z" style="fill:#fff;fill-rule:nonzero;"/><path d="M6.771,17.211c-6.915,3.75 -8.85,13.552 -4.328,21.817c0.075,0.135 0.15,0.27 0.233,0.405c0.259,-1.278 0.727,-2.505 1.387,-3.63c1.146,-1.918 2.716,-3.547 4.59,-4.762c1.035,-0.685 2.139,-1.26 3.293,-1.718c1.572,-0.625 3.218,-1.046 4.897,-1.252c0.363,-1.335 0.901,-2.616 1.598,-3.81c-1.018,-1.372 -1.909,-2.833 -2.663,-4.365l-0.052,-0.12c0.578,-0.766 1.21,-1.491 1.89,-2.168c0.24,-0.24 0.495,-0.48 0.75,-0.75c-3.712,-1.666 -7.991,-1.535 -11.595,0.353Z" style="fill:#fff;fill-rule:nonzero;"/><path d="M3.546,39.756c-2.213,7.567 3.33,15.87 12.367,18.495l0.45,0.12c-0.721,-1.089 -1.256,-2.291 -1.582,-3.555c-0.548,-2.164 -0.589,-4.426 -0.12,-6.608c0.243,-1.218 0.616,-2.407 1.11,-3.547c0.672,-1.552 1.539,-3.011 2.58,-4.343c-0.685,-1.205 -1.211,-2.493 -1.568,-3.832c-1.691,-0.243 -3.356,-0.645 -4.972,-1.2l-0.12,-0.045c-0.13,-0.952 -0.195,-1.912 -0.195,-2.873c0,-0.337 0,-0.69 0,-1.042c-3.801,1.44 -6.735,4.551 -7.95,8.43Z" style="fill:#fff;fill-rule:nonzero;"/><path d="M17.211,57.981c3.75,6.915 13.552,8.85 21.817,4.327l0.405,-0.232c-1.278,-0.259 -2.505,-0.728 -3.63,-1.388c-1.918,-1.145 -3.547,-2.716 -4.762,-4.59c-0.685,-1.035 -1.26,-2.139 -1.718,-3.292c-0.625,-1.573 -1.046,-3.219 -1.252,-4.898c-1.335,-0.363 -2.616,-0.9 -3.81,-1.597c-1.372,1.017 -2.833,1.908 -4.365,2.662l-0.12,0.053c-0.766,-0.579 -1.491,-1.21 -2.168,-1.89c-0.24,-0.24 -0.48,-0.495 -0.75,-0.75c-1.666,3.712 -1.535,7.991 0.353,11.595Z" style="fill:#fff;fill-rule:nonzero;"/><path d="M39.756,61.206c7.567,2.212 15.87,-3.33 18.495,-12.33c0.037,-0.15 0.075,-0.3 0.12,-0.45c-1.089,0.721 -2.291,1.256 -3.555,1.582c-2.164,0.548 -4.426,0.589 -6.608,0.12c-1.218,-0.244 -2.407,-0.616 -3.547,-1.11c-1.552,-0.672 -3.011,-1.539 -4.343,-2.58c-1.205,0.684 -2.493,1.211 -3.832,1.568c-0.243,1.691 -0.645,3.356 -1.2,4.972l-0.045,0.12c-0.952,0.13 -1.912,0.195 -2.873,0.195l-1.042,0c1.449,3.786 4.559,6.705 8.43,7.913Z" style="fill:#fff;fill-rule:nonzero;"/><path d="M57.981,47.541c6.915,-3.75 8.85,-13.553 4.327,-21.818c-0.075,-0.135 -0.15,-0.27 -0.232,-0.405c-0.259,1.278 -0.728,2.505 -1.388,3.63c-1.145,1.918 -2.716,3.547 -4.59,4.763c-1.035,0.684 -2.139,1.26 -3.292,1.717c-1.573,0.625 -3.219,1.046 -4.898,1.253c-0.363,1.334 -0.9,2.615 -1.597,3.81c1.017,1.371 1.908,2.832 2.662,4.365l0.053,0.12c-0.579,0.765 -1.21,1.49 -1.89,2.167c-0.24,0.24 -0.495,0.48 -0.75,0.75c3.712,1.666 7.991,1.536 11.595,-0.352Z" style="fill:#fff;fill-rule:nonzero;"/><path d="M61.206,24.996c2.212,-7.568 -3.33,-15.87 -12.33,-18.495l-0.45,-0.12c0.721,1.088 1.256,2.29 1.582,3.555c0.548,2.163 0.589,4.425 0.12,6.607c-0.244,1.218 -0.616,2.408 -1.11,3.548c-0.672,1.551 -1.539,3.01 -2.58,4.342c0.684,1.205 1.211,2.493 1.568,3.833c1.691,0.243 3.356,0.644 4.972,1.2l0.12,0.045c0.13,0.952 0.195,1.911 0.195,2.872c0,0.338 0,0.69 0,1.043c3.786,-1.45 6.705,-4.56 7.913,-8.43Z" style="fill:#fff;fill-rule:nonzero;"/><path d="M47.541,6.771c-3.75,-6.915 -13.553,-8.85 -21.818,-4.328l-0.405,0.233c1.278,0.259 2.505,0.727 3.63,1.387c1.918,1.146 3.547,2.716 4.763,4.59c0.684,1.035 1.26,2.139 1.717,3.293c0.625,1.572 1.046,3.218 1.253,4.897c1.334,0.363 2.615,0.901 3.81,1.598c1.371,-1.018 2.832,-1.909 4.365,-2.663l0.12,-0.052c0.765,0.578 1.49,1.21 2.167,1.89c0.24,0.24 0.48,0.495 0.75,0.75c1.666,-3.712 1.536,-7.991 -0.352,-11.595Z" style="fill:#fff;fill-rule:nonzero;"/></svg>